<?xml version="1.0" encoding="UTF-8"?>
<!DOCTYPE svg  PUBLIC '-//W3C//DTD SVG 1.1//EN'  'http://www.w3.org/Graphics/SVG/1.1/DTD/svg11.dtd'>
<svg version="1.1" xmlns="http://www.w3.org/2000/svg">
<defs>
<font id="29LTBukra-Bold" horiz-adv-x="676">
<font-face font-family="29LT Bukra Bold" font-weight="700" ascent="825" bbox="-58 -228 1042 1046" cap-height="811" descent="-175" panose-1="0 11 9 3 2 2 4 2 2 4" underline-position="-100" underline-thickness="50" unicode-range="U+0020-00FE" units-per-em="1000" x-height="563"/>
<missing-glyph/>
<glyph glyph-name="space" horiz-adv-x="300" unicode=" "/>
<glyph glyph-name="space" horiz-adv-x="300" unicode=" "/>
<glyph d="M174 -11q-18 0 -34 5q-17 6 -30 16.5t-21 25.5t-8 33t8 33.5t21 26t29.5 16.5t34.5 6q17 0 33.5 -6t29 -16.5t20.5 -26t8 -33.5t-8 -33t-20.5 -25.5t-29 -16t-33.5 -5.5zM103 811h140v-574h-140v574z" glyph-name="exclam" horiz-adv-x="349" unicode="!"/>
<glyph d="M47 811h150l-26 -320h-97zM286 811h149l-26 -320h-96z" glyph-name="quotedbl" horiz-adv-x="483" unicode='"'/>
<glyph d="M246 607l28 204h107l-28 -204h174l28 204h106l-28 -204h163l-19 -107h-158l-25 -183h162l-19 -107h-157l-28 -210h-107l28 210h-174l-28 -210h-106l28 210h-163l19 107h158l25 183h-162l19 107h157zM314 317h174l25 183h-174z" glyph-name="numbersign" horiz-adv-x="826" unicode="#"/>
<glyph d="M302 -10q-75 5 -143.5 23.5t-113.5 46.5l57 127q21 -14 49 -25.5t59.5 -19.5t64.5 -13t65 -5q37 0 68.5 6t54.5 19t36.5 33.5t13.5 48.5q0 25 -11 44t-31 32.5t-48.5 23.5t-63.5 19l-67 17q-111 27 -167 89t-56 153q0 88 63 143.5t170 69.5v107h117v-106 q64 -7 124.5 -25.5t103.5 -44.5l-57 -127q-45 29 -107 46t-121 17q-27 0 -53 -5t-46 -15t-32.5 -25.5t-12.5 -37.5q0 -40 30.5 -63.5t98.5 -41.5l68 -17q51 -13 96.5 -34t79.5 -51.5t54 -72.5t20 -96q0 -50 -18 -90.5t-50.5 -70.5t-78 -49t-99.5 -26v-112h-117v108z" glyph-name="dollar" horiz-adv-x="720" unicode="$"/>
<glyph d="M241 346q-48 0 -83.5 17t-59.5 48.5t-36 75.5t-12 99t12 99t36 75.5t59.5 48.5t83.5 17t84 -17t60 -48.5t36 -75.5t12 -99t-12 -99t-36 -75.5t-60 -48.5t-84 -17zM241 460q35 0 56 29t21 97t-21 97.5t-56 29.5t-56 -29.5t-21 -97.5t21 -97t56 -29zM184 1l567 810h143 l-567 -810h-143zM835 -13q-48 0 -83.5 17t-59.5 48.5t-36 75.5t-12 99t12 99t36 75.5t59.5 48.5t83.5 17t84 -17t60 -48.5t36 -75.5t12 -99t-12 -99t-36 -75.5t-60 -48.5t-84 -17zM835 101q35 0 56 29t21 97t-21 97.5t-56 29.5t-56 -29.5t-21 -97.5t21 -97t56 -29z" glyph-name="percent" horiz-adv-x="1077" unicode="%"/>
<glyph d="M333 -12q-69 0 -124.5 17t-95 49t-61 77.5t-21.5 102.5q0 84 49.5 143.5t157.5 97.5q-38 44 -61 86t-23 90q0 39 17.5 71t49 55.5t76 36t97.5 12.5q59 0 104 -14t76 -39.5t46.5 -61t15.5 -78.5q0 -27 -9.5 -56t-30 -57t-52.5 -53t-78 -44l136 -147q24 39 40.5 82.5 t24.5 88.5h146q-12 -71 -42.5 -140t-76.5 -129l165 -178h-177l-80 84q-56 -45 -123.5 -70.5t-145.5 -25.5zM337 118q51 0 95.5 16t81.5 44l-191 204q-81 -24 -113 -58t-32 -81q0 -29 12 -52.5t33.5 -39.5t50.5 -24.5t63 -8.5zM300 643q0 -33 24 -63t57 -65q64 21 90.5 51.5 t26.5 62.5q0 39 -30 59t-69 20t-69 -15.5t-30 -49.5z" glyph-name="ampersand" horiz-adv-x="879" unicode="&amp;"/>
<glyph d="M47 811h150l-26 -320h-97z" glyph-name="quotesingle" horiz-adv-x="244" unicode="'"/>
<glyph d="M45 297q0 79 14 155q13 75 34.5 141.5t48.5 122.5t53 95h138q-30 -50 -57 -109t-47.5 -124.5t-32 -136.5t-11.5 -144q0 -72 11.5 -143.5t32 -137.5t47.5 -126t57 -110h-138q-26 39 -53 95.5t-48.5 124t-35 143.5t-13.5 154z" glyph-name="parenleft" horiz-adv-x="326" unicode="("/>
<glyph d="M280 297q0 -78 -13.5 -154t-34.5 -143.5t-47.5 -124t-52.5 -95.5h-139q30 50 57.5 110t47.5 126t32 137.5t12 143.5q0 73 -12 143.5t-32 136.5t-47.5 125t-57.5 109h139q26 -39 52.5 -95t47.5 -122.5t34.5 -142t13.5 -154.5z" glyph-name="parenright" horiz-adv-x="325" unicode=")"/>
<glyph d="M280 671l139 48l29 -80l-139 -47l85 -117l-68 -51l-88 119l-83 -119l-71 49l84 118l-138 48l28 80l137 -48v140h85v-140z" glyph-name="asterisk" horiz-adv-x="478" unicode="*"/>
<glyph d="M267 220h-221v130h221v213h141v-213h220v-130h-220v-220h-141v220z" glyph-name="plus" horiz-adv-x="675" unicode="+"/>
<glyph d="M112 137h148l-130 -303h-113z" glyph-name="comma" horiz-adv-x="301" unicode=","/>
<glyph d="M46 350h316v-130h-316v130z" glyph-name="hyphen" horiz-adv-x="408" unicode="-"/>
<glyph d="M144 -11q-18 0 -34 5q-17 6 -29.5 16t-20.5 25t-8 33q0 19 8 34t20.5 25.5t29 16.5t34.5 6t34.5 -6t29 -16.5t20.5 -25.5t8 -34q0 -18 -8 -33t-20.5 -25t-29 -15.5t-34.5 -5.5z" glyph-name="period" horiz-adv-x="288" unicode="."/>
<glyph d="M514 811h133l-541 -961h-136z" glyph-name="slash" horiz-adv-x="617" unicode="/"/>
<glyph d="M344 126q69 0 104.5 57t35.5 160t-35.5 160t-104.5 57t-105 -57t-36 -160t36 -160t105 -57zM344 -11q-71 0 -124.5 26.5t-89.5 73.5t-54 112t-18 142t18 142t54 112t89.5 73.5t124.5 26.5q70 0 123.5 -26.5t89.5 -73.5t54.5 -112t18.5 -142t-18.5 -142t-54.5 -112 t-89.5 -73.5t-123.5 -26.5z" glyph-name="zero" horiz-adv-x="688" unicode="0"/>
<glyph d="M177 523l-157 -35v128l297 66v-682h-140v523z" glyph-name="one" horiz-adv-x="400" unicode="1"/>
<glyph d="M267 560q-46 0 -83.5 -16t-72.5 -43l-63 123q45 34 107.5 53.5t128.5 19.5q52 0 98 -12t80.5 -36.5t55 -62t20.5 -88.5q0 -49 -18.5 -94t-54 -90t-88 -90t-119.5 -94h287v-130h-499v125l125 92q61 46 110 90t79 85.5t30 77.5q0 23 -10 40t-27 28t-39 16.5t-47 5.5z" glyph-name="two" horiz-adv-x="606" unicode="2"/>
<glyph d="M267 -11q-33 0 -65 5q-33 5 -65 14.5t-61 22.5t-51 30l62 125q35 -28 76.5 -44t86.5 -16q29 0 56 5t47.5 15.5t33 26.5t12.5 38q0 23 -12 37.5t-33 22.5t-50.5 11t-64.5 3h-23v132h21q37 0 64.5 2.5t45.5 9.5t26.5 19.5t8.5 32.5q0 38 -36.5 58.5t-92.5 20.5 q-45 0 -85.5 -16t-75.5 -43l-62 124q45 33 109.5 52.5t128.5 19.5q57 0 104.5 -13t82 -37.5t53.5 -60t19 -80.5q0 -26 -6.5 -50t-18 -43.5t-27 -34.5t-33.5 -22q45 -17 74 -57t29 -106q0 -49 -20.5 -87t-57.5 -64t-88 -39.5t-112 -13.5z" glyph-name="three" horiz-adv-x="611" unicode="3"/>
<glyph d="M380 155h-343v129l304 390h179v-389h102v-130h-102v-155h-140v155zM380 285v260l-200 -260h200z" glyph-name="four" unicode="4"/>
<glyph d="M309 -11q-71 0 -137 19t-122 53l63 126q17 -14 39 -25t46 -19t48 -12t47 -4q27 0 53.5 4.5t47 16t33 30t12.5 46.5q0 27 -11 45t-30 29.5t-45.5 16.5t-56.5 5q-24 0 -51 -3.5t-53.5 -8.5t-51.5 -12t-45 -14l48 392h404v-130h-291l-13 -103q21 4 42.5 5.5t43.5 1.5 q48 0 93.5 -10.5t81.5 -36.5t58 -69.5t22 -109.5q0 -57 -22 -100.5t-59.5 -73t-87.5 -44.5t-106 -15z" glyph-name="five" horiz-adv-x="650" unicode="5"/>
<glyph d="M313 -11q-52 0 -100 18t-84.5 51t-58 79t-21.5 101q0 73 26 131t69 114l146 191h180l-153 -185q7 1 13.5 1.5t13.5 0.5q42 0 83.5 -17.5t74.5 -50.5t53.5 -80t20.5 -105q0 -55 -21.5 -100.5t-58 -78.5t-84 -51.5t-99.5 -18.5zM313 126q55 0 86.5 34t31.5 83 q0 48 -31.5 82t-86.5 34q-56 0 -87.5 -34t-31.5 -82q0 -49 31.5 -83t87.5 -34z" glyph-name="six" horiz-adv-x="626" unicode="6"/>
<glyph d="M391 545h-354v129h511v-129l-326 -545h-168z" glyph-name="seven" horiz-adv-x="593" unicode="7"/>
<glyph d="M337 697q47 0 92 -11q45 -12 80 -35.5t56.5 -59t21.5 -83.5q0 -25 -7 -49t-18.5 -43.5t-25.5 -34t-29 -21.5q19 -9 37 -24t32 -36t23 -48t9 -60q0 -54 -24.5 -92.5t-63.5 -63t-87 -36t-96 -11.5t-96 11.5t-87 36t-63.5 63t-24.5 92.5q0 33 8.5 60t23 48t32.5 36t37 24 q-15 7 -29 21.5t-25.5 34t-18.5 43.5t-7 49q0 48 21.5 83.5t56.5 59t80 35t92 11.5zM337 299q-56 0 -90 -23.5t-34 -63.5q0 -39 34.5 -62.5t89.5 -23.5t89.5 23.5t34.5 62.5q0 40 -34 63.5t-90 23.5zM337 560q-45 0 -76 -19t-31 -52q0 -29 28 -50t79 -21t78.5 21t27.5 50 q0 33 -30.5 52t-75.5 19z" glyph-name="eight" horiz-adv-x="674" unicode="8"/>
<glyph d="M313 697q52 0 99.5 -18t84 -51t58 -79t21.5 -101q0 -73 -26.5 -130.5t-67.5 -114.5l-146 -203h-180l152 198q-6 -2 -13 -2h-14q-41 0 -82.5 17.5t-74.5 50t-54 79t-21 105.5q0 55 21.5 100.5t58 78.5t84 51.5t100.5 18.5zM313 560q-56 0 -87.5 -33.5t-31.5 -82.5 t31.5 -83t87.5 -34q55 0 86.5 34t31.5 83t-31 82.5t-87 33.5z" glyph-name="nine" horiz-adv-x="626" unicode="9"/>
<glyph d="M149 -11q-18 0 -34 5q-17 6 -29.5 16t-20.5 25t-8 33q0 19 8 34t20.5 25.5t29 16.5t34.5 6q17 0 33.5 -6t29 -16.5t20.5 -25.5t8 -34q0 -18 -8 -33t-20.5 -25t-29 -15.5t-33.5 -5.5zM149 380q-18 0 -34 6q-17 5 -29.5 15.5t-20.5 25.5t-8 34q0 18 8 33t20.5 25.5t29 16.5 t34.5 6q17 0 33.5 -6t29 -16.5t20.5 -25.5t8 -33q0 -19 -8 -34t-20.5 -25.5t-29 -16t-33.5 -5.5z" glyph-name="colon" horiz-adv-x="297" unicode=":"/>
<glyph d="M112 137h148l-130 -303h-113zM181 380q-18 0 -35 6q-16 5 -28.5 15.5t-20.5 25.5t-8 34q0 18 8 33t20.5 25.5t29 16.5t34.5 6q17 0 33.5 -6t29.5 -16.5t21 -25.5t8 -33q0 -19 -8 -34t-21 -25.5t-29.5 -16t-33.5 -5.5z" glyph-name="semicolon" horiz-adv-x="315" unicode=";"/>
<glyph d="M631 576v-133l-435 -163l435 -160v-134l-585 228v134z" glyph-name="less" horiz-adv-x="677" unicode="&lt;"/>
<glyph d="M46 479h517v-130h-517v130zM46 222h517v-131h-517v131z" glyph-name="equal" horiz-adv-x="609" unicode="="/>
<glyph d="M631 348v-134l-585 -228v142l435 152l-435 156v140z" glyph-name="greater" horiz-adv-x="677" unicode="&gt;"/>
<glyph d="M229 -12q-18 0 -35 6t-30 16.5t-21 26t-8 34.5t8 34.5t21 26.5t30 17t35 6t35 -6t30.5 -17t21.5 -26.5t8 -34.5t-8 -34.5t-21.5 -26t-30.5 -16.5t-35 -6zM226 689q-48 0 -93 -11q-46 -12 -88 -30l18 145q34 14 76 23.5t101 9.5q60 0 112.5 -17.5t91 -50t60.5 -78.5 t22 -103q0 -53 -18 -94.5t-48 -72.5t-70.5 -51.5t-85.5 -30.5v-91h-140v197h12q40 0 77 6.5t65 22t44.5 40.5t16.5 61q0 29 -13.5 52.5t-35.5 39.5t-49 24.5t-55 8.5z" glyph-name="question" horiz-adv-x="568" unicode="?"/>
<glyph d="M686 177q-45 0 -76.5 26.5t-38.5 78.5q-26 -49 -68.5 -75.5t-104.5 -26.5q-33 0 -63.5 12t-53.5 37t-37 63.5t-14 91.5q0 49 16 96.5t46 85t73 60t98 22.5q47 0 81 -23.5t50 -63.5q3 17 4.5 34.5t3.5 33.5h81l-33 -248q-3 -26 -3 -46q0 -39 12 -57.5t39 -18.5 q22 0 42 13.5t35 39.5t23.5 63.5t8.5 85.5q0 71 -23 125t-65 90t-100.5 54.5t-128.5 18.5q-79 0 -144.5 -27t-112 -74t-72 -111.5t-25.5 -139.5q0 -70 21 -129t61 -102t97.5 -67.5t130.5 -24.5q52 0 111.5 12t108.5 37l32 -80q-29 -13 -61.5 -23.5t-65.5 -17.5t-65 -10.5 t-60 -3.5q-90 0 -163.5 31t-126.5 86t-82 130.5t-29 164.5q0 91 34.5 169.5t94.5 136t141.5 90t176.5 32.5q83 0 156 -21.5t128 -66.5t86.5 -113.5t31.5 -161.5q0 -69 -18 -123t-47.5 -90.5t-66.5 -55.5t-76 -19zM464 563q-32 0 -57 -15t-42.5 -39.5t-27 -57.5t-9.5 -69 q0 -60 24.5 -89t71.5 -29q33 0 59 15t44 41t27 59.5t9 71.5q0 54 -26 83t-73 29z" glyph-name="at" horiz-adv-x="939" unicode="@"/>
<glyph d="M785 0h-151l-69 191h-336l-68 -191h-151l300 811h175zM277 326h240l-120 337z" glyph-name="A" horiz-adv-x="795" unicode="A"/>
<glyph d="M672 607q0 -51 -27.5 -98t-85.5 -73q41 -12 70.5 -33t48 -47.5t27.5 -56.5t9 -61q0 -64 -25.5 -109t-66.5 -73.5t-94.5 -42t-108.5 -13.5h-319v811h279q76 0 131 -16t91 -43.5t53.5 -64.5t17.5 -80zM565 241q0 32 -11.5 53t-33.5 33t-53.5 17t-71.5 5h-151v-215h155 q85 0 125.5 25.5t40.5 81.5zM523 582q0 42 -35 68.5t-118 26.5h-126v-193h126q80 0 116.5 24t36.5 74z" glyph-name="B" horiz-adv-x="764" unicode="B"/>
<glyph d="M471 689q-55 0 -104.5 -17t-87 -52t-59.5 -88t-22 -125t22 -125t59.5 -88.5t87 -52.5t104.5 -17q60 0 111.5 16.5t95.5 44.5l56 -128q-52 -32 -122 -50.5t-147 -18.5q-96 0 -174 31.5t-132.5 88t-84 133t-29.5 166.5t29.5 166.5t84 133t132.5 88t174 31.5q77 0 147 -19 t122 -51l-56 -127q-44 27 -95.5 43.5t-111.5 16.5z" glyph-name="C" horiz-adv-x="774" unicode="C"/>
<glyph d="M311 134q74 0 133.5 14.5t101.5 47.5t64.5 85.5t22.5 128.5q0 71 -23 121.5t-64.5 83t-100 47.5t-129.5 15h-72v-543h67zM100 811h214q101 0 187.5 -25.5t149.5 -75.5t98.5 -125.5t35.5 -174.5q0 -98 -34.5 -174.5t-96 -129t-147 -79.5t-187.5 -27h-220v811z" glyph-name="D" horiz-adv-x="830" unicode="D"/>
<glyph d="M100 811h518v-134h-374v-193h339v-136h-339v-214h376v-134h-520v811z" glyph-name="E" horiz-adv-x="685" unicode="E"/>
<glyph d="M100 0v811h517v-134h-373v-193h337v-136h-337v-348h-144z" glyph-name="F" horiz-adv-x="647" unicode="F"/>
<glyph d="M465 -12q-96 0 -174 31.5t-132.5 88t-84 133t-29.5 166.5t29.5 166.5t84 133t132.5 88t174 31.5q88 0 166 -19t130 -51l-55 -127q-44 27 -104 43.5t-131 16.5q-55 0 -104.5 -17t-87 -52t-59.5 -88t-22 -125t22 -125t59.5 -88.5t87 -52.5t104.5 -17q43 0 86 9t80 26v146 h-181v136h325v-379q-29 -18 -67.5 -31.5t-80.5 -23t-85.5 -14.5t-82.5 -5z" glyph-name="G" horiz-adv-x="881" unicode="G"/>
<glyph d="M100 0v811h144v-327h389v327h145v-811h-145v348h-389v-348h-144z" glyph-name="H" horiz-adv-x="878" unicode="H"/>
<glyph d="M100 0v811h144v-811h-144z" glyph-name="I" horiz-adv-x="344" unicode="I"/>
<glyph d="M53 157q26 -15 57 -24t67 -9q46 0 71.5 26.5t25.5 90.5v570h144v-576q0 -66 -15 -113t-42.5 -76.5t-67.5 -43.5t-89 -14q-67 0 -119.5 14t-84.5 32z" glyph-name="J" horiz-adv-x="518" unicode="J"/>
<glyph d="M100 0v811h144v-405l316 405h176l-326 -402l346 -409h-181l-331 404v-404h-144z" glyph-name="K" horiz-adv-x="766" unicode="K"/>
<glyph d="M245 134h373v-134h-518v811h145v-677z" glyph-name="L" horiz-adv-x="638" unicode="L"/>
<glyph d="M432 0l-188 692v-692h-144v811h244l177 -683l179 683h242v-811h-144v692l-187 -692h-179z" glyph-name="M" horiz-adv-x="1042" unicode="M"/>
<glyph d="M242 676v-676h-142v811h222l296 -676v676h141v-811h-221z" glyph-name="N" horiz-adv-x="859" unicode="N"/>
<glyph d="M887 407q0 -89 -31 -165.5t-87 -133t-133 -88.5t-170 -32t-170 32t-133 88.5t-87 133t-31 165.5q0 88 31 165t87 133t133 88.5t170 32.5t170 -32.5t133 -88.5t87 -133t31 -165zM735 407q0 64 -20.5 116t-56.5 89t-85 57t-107 20q-57 0 -106 -20t-85 -57t-56.5 -89 t-20.5 -116t20.5 -116t56.5 -89t85 -57t106 -20q58 0 107 20t85 57t56.5 89t20.5 116z" glyph-name="O" horiz-adv-x="932" unicode="O"/>
<glyph d="M244 303v-303h-144v811h304q78 0 134 -21t92 -55.5t53.5 -79t17.5 -92.5q0 -51 -18 -98t-55 -83t-93 -57.5t-131 -21.5h-160zM244 677v-240h129q39 0 71.5 6t56 20t36 38t12.5 59q0 60 -43 88.5t-133 28.5h-129z" glyph-name="P" horiz-adv-x="721" unicode="P"/>
<glyph d="M887 407q0 -97 -36 -178.5t-102 -138.5l127 -134l-70 -70l-139 148q-90 -46 -201 -46q-93 0 -170 32t-133 88.5t-87 133t-31 165.5q0 88 31 165t87 133t133 88.5t170 32.5t170 -32.5t133 -88.5t87 -133t31 -165zM735 407q0 64 -20.5 116t-56.5 89t-85 57t-107 20 q-57 0 -106 -20t-85 -57t-56.5 -89t-20.5 -116t20.5 -116t56.5 -89t85 -57.5t106 -20.5q53 0 99 17l-85 91l71 68l100 -106q39 38 61.5 91.5t22.5 121.5z" glyph-name="Q" horiz-adv-x="932" unicode="Q"/>
<glyph d="M387 320h-143v-320h-144v811h304q79 0 135 -20.5t92 -55t52.5 -78.5t16.5 -91q0 -35 -9 -69t-28.5 -64t-51 -54t-76.5 -39l212 -340h-162zM244 677v-232h128q40 0 72.5 5t55.5 18.5t35.5 36.5t12.5 58q0 61 -43 87.5t-133 26.5h-128z" glyph-name="R" horiz-adv-x="782" unicode="R"/>
<glyph d="M102 187q22 -14 49 -25q28 -12 59.5 -20t64.5 -13t65 -5q37 0 68.5 6t54.5 19t36.5 33.5t13.5 48.5q0 25 -11 43t-31 31t-48.5 22t-63.5 18l-67 17q-111 27 -167 89t-56 153q0 49 21 90t60 70.5t93 45.5t120 16q38 0 77.5 -5.5t76.5 -15.5t70.5 -23t59.5 -29l-57 -127 q-45 29 -107 46t-121 17q-29 0 -55 -5.5t-46 -16.5t-31.5 -27.5t-11.5 -38.5q0 -40 30.5 -64t98.5 -41l68 -17q51 -13 96.5 -33t79.5 -50t54 -71t20 -95q0 -59 -24.5 -104t-67 -75.5t-101.5 -46.5t-128 -16q-42 0 -84.5 5.5t-81.5 15t-73 22.5t-60 29z" glyph-name="S" horiz-adv-x="720" unicode="S"/>
<glyph d="M290 677h-270v134h685v-134h-270v-677h-145v677z" glyph-name="T" horiz-adv-x="725" unicode="T"/>
<glyph d="M438 -12q-95 0 -161 25.5t-107.5 70t-60.5 105t-19 129.5v493h144v-460q0 -56 10.5 -98.5t34.5 -71t63 -43t96 -14.5q56 0 95 14.5t63 43t35 71t11 98.5v460h144v-493q0 -69 -19 -129.5t-60.5 -105t-107.5 -70t-161 -25.5z" glyph-name="U" horiz-adv-x="876" unicode="U"/>
<glyph d="M20 811h159l211 -663l212 663h159l-276 -811h-189z" glyph-name="V" horiz-adv-x="781" unicode="V"/>
<glyph d="M750 169l132 642h160l-187 -811h-201l-118 674l-118 -674h-201l-187 811h159l132 -642l114 642h201z" glyph-name="W" horiz-adv-x="1072" unicode="W"/>
<glyph d="M482 422l301 -422h-167l-218 305l-218 -305h-160l298 417l-281 394h168l197 -277l198 277h161z" glyph-name="X" horiz-adv-x="803" unicode="X"/>
<glyph d="M568 811h167l-287 -507v-304h-145v304l-288 507h167l193 -365z" glyph-name="Y" horiz-adv-x="750" unicode="Y"/>
<glyph d="M90 811h588v-133l-449 -544h460v-134h-634v133l450 544h-415v134z" glyph-name="Z" horiz-adv-x="754" unicode="Z"/>
<glyph d="M81 811h240v-101h-100v-829h100v-101h-240v1031z" glyph-name="bracketleft" horiz-adv-x="336" unicode="["/>
<glyph d="M647 -150h-136l-541 961h133z" glyph-name="backslash" horiz-adv-x="617" unicode="\"/>
<glyph d="M255 -220h-240v101h100v829h-100v101h240v-1031z" glyph-name="bracketright" horiz-adv-x="336" unicode="]"/>
<glyph d="M550 409h-123l-149 304l-150 -304h-122l206 402h131z" glyph-name="asciicircum" horiz-adv-x="556" unicode="^"/>
<glyph d="M46 0h515v-131h-515v131z" glyph-name="underscore" horiz-adv-x="606" unicode="_"/>
<glyph d="M15 811h140l117 -140h-114z" glyph-name="grave" horiz-adv-x="287" unicode="`"/>
<glyph d="M422 244q-21 5 -46 8q-26 4 -49 4q-27 0 -50.5 -3.5t-41.5 -12t-28.5 -22.5t-10.5 -34q0 -39 35.5 -54.5t87.5 -15.5q26 0 53 4t50 12v114zM317 -12q-53 0 -101.5 10t-85 32t-58.5 57.5t-22 87.5q0 47 19.5 83t54 60t83 36t105.5 12q23 0 50.5 -1.5t59.5 -6.5v8 q0 48 -36 65t-94 17q-22 0 -48 -4t-52.5 -11t-51.5 -16t-46 -19l18 143q34 17 87 29.5t112 12.5q54 0 100 -12t79.5 -38t52.5 -69t19 -104v-328q-54 -21 -118 -32.5t-127 -11.5z" glyph-name="a" horiz-adv-x="632" unicode="a"/>
<glyph d="M221 136q49 -11 87 -11q83 0 132 38.5t49 120.5t-49 122t-132 40q-20 0 -41 -2.5t-46 -9.5v-298zM221 575q29 4 53 6t44 2q72 0 130.5 -23t100 -63.5t64 -95t22.5 -117.5t-22 -117t-64 -94t-103 -62.5t-139 -22.5q-122 0 -226 29v794h140v-236z" glyph-name="b" horiz-adv-x="668" unicode="b"/>
<glyph d="M33 285q0 64 22.5 118.5t63 94.5t96 62.5t120.5 22.5q58 0 105 -12t90 -34l-56 -126q-28 16 -61 25.5t-72 9.5q-36 0 -66 -11.5t-51 -33t-32.5 -51t-11.5 -65.5t11.5 -65.5t32.5 -50.5t51 -32.5t66 -11.5q39 0 72 9t61 26l56 -127q-43 -22 -90 -33.5t-105 -11.5 q-65 0 -120.5 22.5t-96 62t-63 94t-22.5 118.5z" glyph-name="c" horiz-adv-x="558" unicode="c"/>
<glyph d="M180 284q0 -82 49 -120.5t132 -38.5q38 0 87 11v298q-26 7 -47 9.5t-40 2.5q-83 0 -132 -40t-49 -122zM448 811h140v-794q-105 -29 -226 -29q-78 0 -139 22.5t-103.5 62.5t-64.5 94t-22 117t22.5 117.5t64.5 95t100.5 63.5t130.5 23q19 0 43.5 -2t53.5 -6v236z" glyph-name="d" horiz-adv-x="669" unicode="d"/>
<glyph d="M361 125q22 0 46.5 4t47 10.5t41.5 15.5t30 20l62 -125q-45 -25 -104 -43.5t-142 -18.5q-67 0 -123.5 22.5t-98 62.5t-64.5 94.5t-23 117.5q0 65 23.5 120t64 94.5t95 61.5t116.5 22q65 0 119.5 -23t93.5 -67.5t60 -108.5t18 -145h-446q14 -58 58.5 -86t110.5 -28h15z M330 459q-57 0 -96 -29.5t-52 -74.5h294q-11 52 -50 78t-96 26z" glyph-name="e" horiz-adv-x="651" unicode="e"/>
<glyph d="M25 563h106v54q0 101 53.5 147.5t170.5 46.5h134v-130h-133q-27 0 -43.5 -5.5t-26 -16.5t-12.5 -28t-3 -40v-28h214v-130h-214v-433h-140v433h-106v130z" glyph-name="f" horiz-adv-x="509" unicode="f"/>
<glyph d="M448 434q-23 5 -45 8q-22 4 -42 4q-83 0 -132 -37t-49 -116q0 -78 49 -116t132 -38q19 0 40 2.5t47 8.5v284zM33 293q0 62 22 115t64.5 92t103.5 61t139 22q122 0 226 -30v-510q0 -75 -14.5 -126t-48.5 -82.5t-90 -45.5t-140 -14q-17 0 -38 2t-43 5.5t-43 8t-38 9.5 l-30 146q21 -9 46.5 -16.5t52.5 -13.5t52.5 -9t46.5 -3q32 0 59 5.5t46.5 17t30.5 29t11 42.5v12q-29 -5 -53.5 -6.5t-43.5 -1.5q-72 0 -130.5 22.5t-100.5 61.5t-64.5 92t-22.5 115z" glyph-name="g" horiz-adv-x="669" unicode="g"/>
<glyph d="M221 571q32 5 61 9q29 3 52 3q54 0 101.5 -10t82.5 -36t55.5 -71t20.5 -114v-352h-140v312q0 77 -32 105.5t-94 28.5q-23 0 -50 -3t-57 -8v-435h-140v811h140v-240z" glyph-name="h" horiz-adv-x="664" unicode="h"/>
<glyph d="M81 563h140v-563h-140v563zM151 651q-33 0 -57.5 19t-24.5 56q0 33 23.5 53.5t58.5 20.5t58 -20.5t23 -53.5q0 -34 -22.5 -54.5t-58.5 -20.5z" glyph-name="i" horiz-adv-x="301" unicode="i"/>
<glyph d="M27 -225q-13 0 -26 2q-13 1 -25 4l-16 130q19 -5 33.5 -6.5t28.5 -1.5q46 0 62.5 29t16.5 99v532h140v-515q0 -74 -9.5 -126t-34 -84.5t-66 -47.5t-104.5 -15zM171 651q-33 0 -57.5 19t-24.5 56q0 33 23.5 53.5t58.5 20.5t58 -20.5t23 -53.5q0 -34 -22.5 -54.5 t-58.5 -20.5z" glyph-name="j" horiz-adv-x="322" unicode="j"/>
<glyph d="M81 0v811h140v-525l209 277h166l-211 -279l224 -284h-168l-220 278v-278h-140z" glyph-name="k" horiz-adv-x="609" unicode="k"/>
<glyph d="M81 0v811h140v-811h-140z" glyph-name="l" horiz-adv-x="302" unicode="l"/>
<glyph d="M769 313q0 77 -26.5 105t-84.5 28q-23 0 -51.5 -6t-54.5 -18q3 -6 6 -19t5 -28t3 -30.5t1 -27.5v-317h-140v313q0 39 -6.5 64.5t-20.5 40.5t-35.5 21.5t-51.5 6.5q-23 0 -43 -4l-49 -8v-434h-140v552q67 12 129 21.5t105 9.5q45 0 88 -9t71 -32q44 18 95.5 29.5 t93.5 11.5q52 0 97 -10t78 -36t52 -71t19 -114v-352h-140v313z" glyph-name="m" horiz-adv-x="979" unicode="m"/>
<glyph d="M81 554q33 6 68 11.5t68.5 9t63.5 6t53 2.5q54 0 101.5 -10t82.5 -36t55.5 -71t20.5 -114v-352h-140v312q0 77 -32 105.5t-94 28.5q-23 0 -50 -3t-57 -8v-435h-140v554z" glyph-name="n" horiz-adv-x="664" unicode="n"/>
<glyph d="M338 -12q-65 0 -120.5 23t-96.5 62.5t-64.5 94t-23.5 117.5t23.5 117t64.5 94.5t96.5 63.5t120.5 23t120.5 -23t96.5 -63.5t64.5 -94.5t23.5 -117t-23.5 -117.5t-64.5 -94t-96.5 -62.5t-120.5 -23zM338 125q37 0 66 12.5t49.5 34t31.5 51t11 62.5t-11 62.5t-31.5 51 t-49.5 34.5t-66 13t-66 -13t-49.5 -34.5t-31.5 -51t-11 -62.5t11 -62.5t31.5 -51t49.5 -34t66 -12.5z" glyph-name="o" unicode="o"/>
<glyph d="M221 136q26 -6 47 -8.5t41 -2.5q83 0 132 40t49 121q0 82 -49 121t-132 39q-21 0 -43 -3.5t-45 -8.5v-298zM221 -220h-140v773q52 15 109 22.5t117 7.5q78 0 139 -23t103.5 -62.5t64.5 -94t22 -117.5t-22.5 -117.5t-64 -94.5t-100.5 -63t-131 -23q-19 0 -43.5 1.5 t-53.5 6.5v-216z" glyph-name="p" horiz-adv-x="669" unicode="p"/>
<glyph d="M180 286q0 -81 49 -121t132 -40q19 0 40 2.5t47 8.5v298q-23 5 -45 8.5t-42 3.5q-83 0 -132 -39t-49 -121zM448 -4q-29 -5 -53.5 -6.5t-43.5 -1.5q-72 0 -130.5 23t-100.5 63t-64.5 94.5t-22.5 117.5t22 117.5t64.5 94t103.5 62.5t139 23q122 0 226 -30v-773h-140v216z " glyph-name="q" horiz-adv-x="669" unicode="q"/>
<glyph d="M408 438h-80q-8 0 -23.5 -0.5t-32 -2t-31 -3.5t-20.5 -4v-428h-140v548q26 5 56 9.5t59 7.5t56.5 5t49.5 2h106v-134z" glyph-name="r" horiz-adv-x="438" unicode="r"/>
<glyph d="M296 125q43 0 74 10t31 34q0 22 -19.5 34t-73.5 23l-45 8q-96 18 -150 60t-54 115q0 80 62.5 127t172.5 47q67 0 129.5 -13t109.5 -39l-51 -130q-19 10 -43 18.5t-50 14.5t-52.5 9t-50.5 3q-88 0 -88 -37q0 -19 20 -31.5t73 -22.5l44 -8q115 -22 164.5 -66t49.5 -120 q0 -37 -16 -68.5t-48 -55t-80.5 -36.5t-112.5 -13q-34 0 -68.5 4t-67.5 11.5t-62.5 18t-53.5 24.5l53 136q38 -25 92 -41t111 -16z" glyph-name="s" horiz-adv-x="599" unicode="s"/>
<glyph d="M20 563h106v206h140v-206h214v-130h-214v-204q0 -29 5 -48t17 -30t31 -16t47 -5h118v-130h-133q-59 0 -101 9t-70 30t-41 55t-13 85v254h-106v130z" glyph-name="t" horiz-adv-x="529" unicode="t"/>
<glyph d="M421 563h140v-534q-30 -10 -58 -17.5t-56.5 -13t-59.5 -8t-67 -2.5q-54 0 -100.5 11.5t-81 38.5t-54 71t-19.5 110v344h140v-304q0 -77 26 -105.5t85 -28.5q23 0 48.5 3t56.5 11v424z" glyph-name="u" horiz-adv-x="642" unicode="u"/>
<glyph d="M204 0l-194 563h147l143 -430l143 430h147l-194 -563h-192z" glyph-name="v" horiz-adv-x="600" unicode="v"/>
<glyph d="M547 0l-95 436l-96 -436h-188l-153 563h153l103 -430l96 430h169l97 -430l102 430h154l-150 -563h-192z" glyph-name="w" horiz-adv-x="904" unicode="w"/>
<glyph d="M401 289l223 -289h-165l-141 182l-142 -182h-165l224 290l-211 273h166l128 -166l128 166h167z" glyph-name="x" horiz-adv-x="635" unicode="x"/>
<glyph d="M77 -54q22 -9 47 -17q25 -7 52 -13t52.5 -9t46.5 -3q32 0 59 5.5t46.5 17t30.5 29t11 42.5v12q-57 -12 -112 -12q-54 0 -99 10t-77.5 36t-50.5 71t-18 114v335h141v-295q0 -39 6.5 -64.5t20 -41t34.5 -22t50 -6.5q23 0 48.5 3t56.5 12v414h140v-521q0 -75 -14.5 -126 t-48.5 -82.5t-90 -45.5t-140 -14q-17 0 -38 2t-43 5.5t-43 8t-38 9.5z" glyph-name="y" horiz-adv-x="643" unicode="y"/>
<glyph d="M64 563h459v-129l-305 -304h315v-130h-493v130l311 303h-287v130z" glyph-name="z" horiz-adv-x="583" unicode="z"/>
<glyph d="M291 -220q-52 0 -86 7.5t-54.5 26.5t-29 52t-8.5 83v170q0 26 -3 49t-11.5 39.5t-25 26.5t-43.5 11v102q27 1 43.5 11t25 27t11.5 39.5t3 49.5v168q0 50 8.5 83t29 52t54.5 26.5t86 7.5h59v-101h-32q-23 0 -36 -3t-19.5 -11t-8 -22.5t-1.5 -37.5v-176q0 -42 -7 -70.5 t-20 -47t-30.5 -28.5t-38.5 -16v-2q21 -6 38.5 -16.5t30.5 -29t20 -47t7 -70.5v-178q0 -23 1.5 -37.5t8 -22.5t19.5 -11t36 -3h32v-101h-59z" glyph-name="braceleft" horiz-adv-x="365" unicode="{"/>
<glyph d="M81 811h140v-1031h-140v1031z" glyph-name="bar" horiz-adv-x="301" unicode="|"/>
<glyph d="M73 -220h-58v101h23q23 0 37.5 3t22.5 11t10.5 22.5t2.5 37.5v178q0 42 7 70.5t20 47t30.5 29t38.5 16.5v2q-21 6 -38.5 16t-30.5 28.5t-20 47t-7 70.5v176q0 23 -2.5 37.5t-10.5 22.5t-22.5 11t-37.5 3h-23v101h58q52 0 86 -7.5t54.5 -26.5t29 -52t8.5 -83v-168 q0 -27 3 -49.5t12 -39.5t25.5 -27t43.5 -11v-102q-27 -1 -43.5 -11t-25.5 -26.5t-12 -39.5t-3 -49v-170q0 -50 -8.5 -83t-29 -52t-54.5 -26.5t-86 -7.5z" glyph-name="braceright" horiz-adv-x="365" unicode="}"/>
<glyph d="M414 307q28 0 44 16.5t21 61.5h101q-1 -98 -36 -150.5t-107 -52.5q-34 0 -64.5 12t-59 27t-55 27t-51.5 12q-28 0 -44.5 -16.5t-21.5 -61.5h-100q0 97 35.5 150t106.5 53q37 0 69.5 -12t60.5 -27l54 -27q25 -12 47 -12z" glyph-name="asciitilde" horiz-adv-x="620" unicode="~"/>
<glyph d="M172 613q18 0 34.5 -5.5t29.5 -16t21 -25.5t8 -33t-8 -33.5t-21 -26t-29.5 -16.5t-34.5 -6q-17 0 -33.5 6t-29.5 16.5t-20.5 26t-7.5 33.5t7.5 33t20.5 25.5t29.5 16t33.5 5.5zM243 -220h-140v585h140v-585z" glyph-name="exclamdown" horiz-adv-x="349" unicode="¡"/>
<glyph d="M310 -11q-60 4 -111 28t-88 63t-57.5 91.5t-20.5 113.5q0 60 20.5 112.5t57.5 92t88 63.5t111 29v96h47v-96q51 -2 92.5 -13.5t80.5 -31.5l-56 -126q-25 14 -54 23t-63 11v-320q67 4 117 35l56 -127q-39 -20 -80.5 -31t-92.5 -13v-98h-47v98zM180 285q0 -65 35 -107 t95 -51v316q-60 -9 -95 -51.5t-35 -106.5z" glyph-name="cent" horiz-adv-x="558" unicode="¢"/>
<glyph d="M405 826q66 0 134.5 -16t119.5 -44l-56 -124q-35 21 -84 34t-99 13q-29 0 -59 -4t-54.5 -14.5t-40.5 -29.5t-16 -48q0 -20 7 -38t18 -36t24.5 -35.5t26.5 -36.5h226v-130h-180q-2 -25 -13.5 -49t-29 -46t-40 -41.5t-45.5 -34.5l1 -2q26 8 47 11t40 3q26 0 48.5 -5.5 t44.5 -12t44.5 -12t48.5 -5.5q30 0 60.5 6t63.5 22l43 -127q-39 -17 -82 -26.5t-94 -9.5q-32 0 -60 6.5t-56 15t-57 15t-61 6.5t-73.5 -8t-92.5 -34l-52 125q30 15 60 33.5t53.5 42.5t38 55t14.5 71v1h-173v130h122l-24 38q-13 19 -23 39t-16.5 42.5t-6.5 48.5q0 56 27.5 96 t71 65.5t97.5 37.5t107 12z" glyph-name="sterling" horiz-adv-x="715" unicode="£"/>
<glyph d="M289 550q48 0 83 -12.5t58 -31.5l62 57l74 -74l-60 -55q17 -25 27.5 -58t10.5 -76t-10.5 -76t-27.5 -58l60 -55l-74 -74l-62 57q-23 -19 -58 -31.5t-83 -12.5t-83 12.5t-58 31.5l-62 -57l-74 74l60 55q-17 25 -27.5 58t-10.5 76t10.5 76t27.5 58l-60 55l74 74l62 -57 q23 19 58 31.5t83 12.5zM289 146q33 0 62 12t50.5 33t34 49t12.5 60q0 34 -12 62.5t-33 48.5t-50.5 31.5t-63.5 11.5q-35 0 -64 -11.5t-50 -31.5t-33 -48.5t-12 -62.5q0 -32 12 -60t33.5 -49t50.5 -33t63 -12z" glyph-name="currency" horiz-adv-x="578" unicode="¤"/>
<glyph d="M102 351h180l-267 460h150l210 -372l210 372h150l-266 -460h178v-96h-201v-70h201v-105h-201v-80h-141v80h-203v105h203v70h-203v96z" glyph-name="yen" horiz-adv-x="750" unicode="¥"/>
<glyph d="M81 811h140v-400h-140v400zM81 180h140v-400h-140v400z" glyph-name="brokenbar" horiz-adv-x="301" unicode="¦"/>
<glyph d="M112 645q0 44 19.5 77.5t53 56.5t77.5 34.5t94 11.5q69 0 129.5 -15.5t105.5 -41.5l-50 -117q-35 23 -83 39t-98 16q-51 0 -82 -15t-31 -44q0 -23 20 -43.5t70 -46.5l162 -82q42 -21 76.5 -42.5t58.5 -45.5t37.5 -52.5t13.5 -63.5q0 -32 -10 -58.5t-27.5 -49t-40.5 -40.5 t-49 -31q27 -26 41.5 -57t14.5 -69q0 -47 -19.5 -83t-53.5 -60.5t-80 -37.5t-100 -13q-69 0 -129 15.5t-106 41.5l51 116q41 -27 87 -40t94 -13q25 0 46.5 4.5t38 14t26 23.5t9.5 33q0 27 -26 53t-89 58l-142 71q-83 42 -129.5 90t-46.5 118q0 54 36.5 97.5t88.5 70.5 q-28 26 -43 55.5t-15 64.5zM430 176l18 -9l18 -10q35 19 57 43t22 55q0 18 -5.5 33.5t-18 29.5t-33 28.5t-50.5 29.5l-174 86q-35 -17 -57.5 -40t-22.5 -54q0 -38 22.5 -63.5t75.5 -53.5z" glyph-name="section" horiz-adv-x="730" unicode="§"/>
<glyph d="M89 800q32 0 53.5 -18.5t21.5 -48.5q0 -33 -23 -51q-21 -18 -52 -18q-29 0 -51.5 18t-22.5 51q0 30 21 48.5t53 18.5zM358 800q32 0 53 -18.5t21 -48.5q0 -34 -22 -51q-21 -18 -52 -18q-30 0 -52 18t-22 51q0 30 21 48.5t53 18.5z" glyph-name="dieresis" horiz-adv-x="447" unicode="¨"/>
<glyph d="M45 405q0 93 32.5 171t89.5 133.5t133.5 86.5t164.5 31q87 0 163 -31t133 -86.5t90 -133.5t33 -171t-33 -170.5t-90 -132.5t-133 -85.5t-163 -30.5q-88 0 -164.5 30.5t-133.5 85.5t-89.5 132.5t-32.5 170.5zM127 405q0 -77 26 -140.5t71 -109.5t107 -71t134 -25t134 25 t107 71t70.5 109.5t25.5 140.5q0 78 -25.5 141.5t-70.5 109.5t-107 71t-134 25t-134 -25t-107 -71t-71 -109.5t-26 -141.5zM235 409q0 53 17.5 97t49.5 75.5t76 48.5t98 17q46 0 86.5 -11.5t71.5 -31.5l-35 -87q-26 17 -56 26.5t-65 9.5q-29 0 -54 -10t-43.5 -28.5t-29 -45 t-10.5 -60.5q0 -33 10.5 -60t29 -46t43.5 -29t54 -10q35 0 64.5 9.5t55.5 25.5l36 -85q-31 -20 -71.5 -31.5t-86.5 -11.5q-54 0 -98 17.5t-76 49t-49.5 75t-17.5 96.5z" glyph-name="copyright" horiz-adv-x="929" unicode="©"/>
<glyph d="M287 594q-14 3 -32.5 5t-29.5 2q-34 0 -59.5 -8t-25.5 -32q0 -25 22.5 -34.5t56.5 -9.5q33 0 68 9v68zM217 429q-35 0 -67 7q-32 6 -56.5 21t-39 39t-14.5 59q0 31 13 55.5t36 41t55 25t70 8.5q11 0 31 -1.5t42 -4.5v8q0 30 -24.5 38.5t-60.5 8.5q-26 0 -61.5 -9.5 t-70.5 -23.5l10 94q26 11 62 20t71 9q36 0 67 -8t53.5 -25.5t35.5 -45.5t13 -69v-212q-38 -14 -81.5 -24.5t-83.5 -10.5z" glyph-name="ordfeminine" horiz-adv-x="457" unicode="ª"/>
<glyph d="M26 288l156 256h147l-151 -255l150 -258h-145zM283 288l156 256h145l-150 -255l149 -258h-144z" glyph-name="guillemotleft" horiz-adv-x="610" unicode="«"/>
<glyph d="M491 332h-445v130h585v-351h-140v221z" glyph-name="logicalnot" horiz-adv-x="712" unicode="¬"/>
<glyph d="M45 405q0 93 32.5 171t89.5 133.5t133.5 86.5t164.5 31q87 0 163 -31t133 -86.5t90 -133.5t33 -171t-33 -170.5t-90 -132.5t-133 -85.5t-163 -30.5q-88 0 -164.5 30.5t-133.5 85.5t-89.5 132.5t-32.5 170.5zM127 405q0 -77 26 -140.5t71 -109.5t107 -71t134 -25t134 25 t107 71t70.5 109.5t25.5 140.5q0 78 -25.5 141.5t-70.5 109.5t-107 71t-134 25t-134 -25t-107 -71t-71 -109.5t-26 -141.5zM395 366v-168h-96v445h155q43 0 79.5 -6t63.5 -21.5t42.5 -43t15.5 -69.5q0 -49 -23 -78t-61 -43l105 -184h-108l-94 168h-14h-65zM557 503 q0 29 -20.5 42.5t-57.5 13.5h-84v-109h85q41 0 59 13.5t18 39.5z" glyph-name="registered" horiz-adv-x="929" unicode="®"/>
<glyph d="M15 694v86h294v-86h-294z" glyph-name="macron" horiz-adv-x="324" unicode="¯"/>
<glyph d="M30 634q0 40 15 75t40.5 61t60 41t73.5 15q40 0 74.5 -15t60 -41t40.5 -61t15 -75q0 -39 -15 -73.5t-40.5 -60t-60 -40.5t-74.5 -15q-39 0 -73.5 15t-60 40.5t-40.5 60t-15 73.5zM116 634q0 -47 28.5 -78.5t74.5 -31.5q47 0 76 31.5t29 78.5q0 48 -29 80t-76 32 q-46 0 -74.5 -32t-28.5 -80z" glyph-name="degree" horiz-adv-x="439" unicode="°"/>
<glyph d="M268 300h-222v105h222v158h140v-158h221v-105h-221v-162h-140v162zM46 106h582v-106h-582v106z" glyph-name="plusminus" unicode="±"/>
<glyph d="M158 755q-23 0 -42 -7.5t-36 -21.5l-26 49q21 17 49.5 26t60.5 9q48 0 82.5 -23t34.5 -70q0 -49 -37.5 -91t-109.5 -94h152v-52h-236v50l65 48q31 24 55 46t38 42.5t14 39.5q0 26 -19 37.5t-45 11.5z" glyph-name="uni00B2" horiz-adv-x="336" unicode="²"/>
<glyph d="M163 474q-31 0 -61 9t-52 26l26 49q17 -14 37.5 -21.5t43.5 -7.5q31 0 54 11.5t23 35.5q0 27 -23 35.5t-60 8.5h-9v53h8q39 0 57.5 8t18.5 31q0 21 -19 32t-48 11q-23 0 -43 -7.5t-37 -21.5l-26 49q22 16 51.5 25.5t59.5 9.5q53 0 86.5 -23t33.5 -65q0 -27 -13.5 -46.5 t-32.5 -27.5q23 -7 39 -26t16 -52q0 -48 -36.5 -72t-93.5 -24z" glyph-name="uni00B3" horiz-adv-x="343" unicode="³"/>
<glyph d="M129 671h-114l118 140h139z" glyph-name="acute" horiz-adv-x="287" unicode="´"/>
<glyph d="M72 -215q5 32 8 69t3 85v624h140v-260q0 -90 29 -134.5t85 -44.5q57 0 87 46t30 133v260h140v-563h-125v99q-20 -46 -56.5 -76.5t-97.5 -33.5q-43 -1 -68.5 20t-38.5 52v-109q0 -51 -2.5 -92.5t-7.5 -74.5h-126z" glyph-name="mu" horiz-adv-x="675" unicode="µ"/>
<glyph d="M33 596q0 50 19.5 90t55 67.5t86 42.5t113.5 15h258v-894h-95v804h-122v-804h-95v467q-39 3 -78 16.5t-70.5 39.5t-51.5 64.5t-20 91.5z" glyph-name="paragraph" horiz-adv-x="646" unicode="¶"/>
<glyph d="M158 201q-35 0 -59.5 24t-24.5 59q0 34 24.5 58t59.5 24q34 0 58 -24t24 -58q0 -35 -24 -59t-58 -24z" glyph-name="periodcentered" horiz-adv-x="315" unicode="·"/>
<glyph d="M20 -153q12 -5 36 -10q25 -6 45 -6q23 0 43.5 7t20.5 28q0 22 -21 29t-47 7q-19 0 -36.5 -2.5t-28.5 -4.5l63 106h55l-34 -57q16 1 35.5 -1t36.5 -10.5t28 -23.5t11 -39q0 -25 -10 -42.5t-27 -29t-39 -16.5t-46 -5q-23 0 -41 2.5t-40 10.5z" glyph-name="cedilla" horiz-adv-x="252" unicode="¸"/>
<glyph d="M124 744l-74 -17v51l130 29v-327h-56v264z" glyph-name="uni00B9" horiz-adv-x="230" unicode="¹"/>
<glyph d="M233 428q-43 0 -80 15.5t-64 42t-42.5 62.5t-15.5 78q0 41 15.5 77t42.5 63t64 42.5t80 15.5t80 -15.5t64.5 -42.5t43 -63t15.5 -77q0 -42 -15.5 -78t-43 -62.5t-64.5 -42t-80 -15.5zM233 521q49 0 76.5 29.5t27.5 75.5q0 43 -27.5 74t-76.5 31q-48 0 -75.5 -31 t-27.5 -74q0 -46 27.5 -75.5t75.5 -29.5z" glyph-name="ordmasculine" horiz-adv-x="467" unicode="º"/>
<glyph d="M427 31h-145l150 258l-151 255h147l156 -256zM171 31h-144l149 258l-150 255h145l156 -256z" glyph-name="guillemotright" horiz-adv-x="610" unicode="»"/>
<glyph d="M887 151v-71h-52v-80h-90v80h-215v39l218 342h87v-310h52zM745 331h-2l-103 -180h105v180zM711 746l-404 -777l-69 35l405 776zM100 678v76h160v-452h-96v376h-64z" glyph-name="onequarter" horiz-adv-x="987" unicode="¼"/>
<glyph d="M665 746l-404 -777l-69 35l405 776zM100 678v76h160v-452h-96v376h-64zM887 77v-77h-330l125 145l31 36q18 21 34.5 44.5t28.5 46.5t12 42q0 32 -16 53t-47 21q-16 0 -27.5 -7.5t-19 -19t-11 -25t-2.5 -26.5h-101q2 33 13.5 61t31.5 48.5t49 32.5t67 12q33 0 62 -11 t50.5 -30.5t34 -46t12.5 -57.5q0 -50 -25.5 -89.5t-59.5 -75.5l-72 -77h160z" glyph-name="onehalf" horiz-adv-x="987" unicode="½"/>
<glyph d="M887 151v-71h-52v-80h-90v80h-215v39l218 342h87v-310h52zM745 331h-2l-103 -180h105v180zM763 746l-404 -777l-69 35l405 776zM118 644q6 59 45 94.5t105 35.5q63 0 102 -34t39 -93q0 -26 -11 -52.5t-36 -42.5q34 -14 48.5 -46.5t14.5 -63.5q0 -33 -12.5 -60t-34 -45.5 t-51.5 -28.5t-65 -10q-34 0 -62.5 11t-50 30t-34.5 45.5t-15 56.5h96q2 -27 20 -46.5t50 -19.5t49 23t17 49q0 13 -4.5 26.5t-13.5 24t-22 16.5t-29 5l-18 -1v63h11q30 0 46 17t16 46q0 23 -14.5 40t-41.5 17q-26 0 -39 -18t-14 -39h-91z" glyph-name="threequarters" horiz-adv-x="987" unicode="¾"/>
<glyph d="M342 613q18 0 35 -6t30 -16.5t21 -26t8 -34.5t-8 -34.5t-21 -26.5t-30 -17t-35 -6t-35 6t-30.5 17t-21.5 26.5t-8 34.5t8 34.5t21.5 26t30.5 16.5t35 6zM345 -88q-28 0 -56 9q-27 8 -48.5 24t-35 39.5t-13.5 52.5q0 36 16.5 61t44.5 40.5t64.5 22t77.5 6.5h12v197h-140 v-91q-45 -11 -85.5 -31t-70.5 -51t-48 -72.5t-18 -94.5q0 -57 22 -103t60.5 -78.5t91 -50t112.5 -17.5q59 0 101 9.5t76 23.5l18 145q-42 -18 -88 -29.5t-93 -11.5z" glyph-name="questiondown" horiz-adv-x="568" unicode="¿"/>
<glyph d="M785 0h-151l-69 191h-336l-68 -191h-151l300 811h175zM277 326h240l-120 337zM196 985h140l117 -140h-114z" glyph-name="Agrave" horiz-adv-x="795" unicode="À"/>
<glyph d="M785 0h-151l-69 191h-336l-68 -191h-151l300 811h175zM277 326h240l-120 337zM439 845h-114l118 140h139z" glyph-name="Aacute" horiz-adv-x="795" unicode="Á"/>
<glyph d="M785 0h-151l-69 191h-336l-68 -191h-151l300 811h175zM277 326h240l-120 337zM604 845h-117l-88 84l-91 -84h-117l135 140h145z" glyph-name="Acircumflex" horiz-adv-x="795" unicode="Â"/>
<glyph d="M785 0h-151l-69 191h-336l-68 -191h-151l300 811h175zM277 326h240l-120 337zM466 926q25 0 36 14t16 40h68q-5 -65 -36 -97.5t-76 -32.5q-25 0 -44.5 8.5t-36.5 18.5t-33 18.5t-34 8.5q-25 0 -35 -14t-15 -40h-69q5 60 36 95t77 35q25 0 44.5 -8.5t36 -18.5t32 -18.5 t33.5 -8.5z" glyph-name="Atilde" horiz-adv-x="795" unicode="Ã"/>
<glyph d="M785 0h-151l-69 191h-336l-68 -191h-151l300 811h175zM277 326h240l-120 337zM262 983q32 0 53.5 -18.5t21.5 -48.5q0 -33 -23 -51q-21 -18 -52 -18q-29 0 -51.5 18t-22.5 51q0 30 21 48.5t53 18.5zM531 983q32 0 53 -18.5t21 -48.5q0 -34 -22 -51q-21 -18 -52 -18 q-30 0 -52 18t-22 51q0 30 21 48.5t53 18.5z" glyph-name="Adieresis" horiz-adv-x="795" unicode="Ä"/>
<glyph d="M785 0h-151l-69 191h-336l-68 -191h-151l300 811h175zM277 326h240l-120 337zM397 1046q44 0 74.5 -28t30.5 -72q0 -45 -30 -73t-75 -28t-76 28t-31 73q0 44 31 72t76 28zM397 1002q-23 0 -40.5 -15.5t-17.5 -40.5q0 -26 17.5 -41t40.5 -15t39.5 15t16.5 41 q0 25 -16.5 40.5t-39.5 15.5z" glyph-name="Aring" horiz-adv-x="795" unicode="Å"/>
<glyph d="M1026 811v-134h-374v-193h339v-136h-339v-214h376v-134h-520v191h-230l-117 -191h-171l518 811h518zM362 326h146v237z" glyph-name="AE" horiz-adv-x="1093" unicode="Æ"/>
<glyph d="M306 -153q12 -5 36 -10q25 -6 45 -6q23 0 43.5 7t20.5 28q0 22 -21 29t-47 7q-19 0 -36.5 -2.5t-28.5 -4.5l59 101q-77 13 -138.5 49t-104.5 90t-66 123t-23 149q0 90 29.5 166.5t84 133t132.5 88t174 31.5q77 0 147 -19t122 -51l-56 -127q-44 27 -95.5 43.5t-111.5 16.5 q-55 0 -104.5 -17t-87 -52t-59.5 -88t-22 -125t22 -125t59.5 -88.5t87 -52.5t104.5 -17q60 0 111.5 16.5t95.5 44.5l56 -128q-52 -32 -122 -50.5t-147 -18.5q-9 0 -18.5 0.5t-17.5 1.5l-27 -46q16 1 35.5 -1t36.5 -10.5t28 -23.5t11 -39q0 -25 -10 -42.5t-27 -29t-39 -16.5 t-46 -5q-23 0 -41 2.5t-40 10.5z" glyph-name="Ccedilla" horiz-adv-x="774" unicode="Ç"/>
<glyph d="M100 811h518v-134h-374v-193h339v-136h-339v-214h376v-134h-520v811zM168 985h140l117 -140h-114z" glyph-name="Egrave" horiz-adv-x="685" unicode="È"/>
<glyph d="M100 811h518v-134h-374v-193h339v-136h-339v-214h376v-134h-520v811zM397 845h-114l118 140h139z" glyph-name="Eacute" horiz-adv-x="685" unicode="É"/>
<glyph d="M100 811h518v-134h-374v-193h339v-136h-339v-214h376v-134h-520v811zM566 845h-117l-88 84l-91 -84h-117l135 140h145z" glyph-name="Ecircumflex" horiz-adv-x="685" unicode="Ê"/>
<glyph d="M100 811h518v-134h-374v-193h339v-136h-339v-214h376v-134h-520v811zM220 983q32 0 53.5 -18.5t21.5 -48.5q0 -33 -23 -51q-21 -18 -52 -18q-29 0 -51.5 18t-22.5 51q0 30 21 48.5t53 18.5zM489 983q32 0 53 -18.5t21 -48.5q0 -34 -22 -51q-21 -18 -52 -18q-30 0 -52 18 t-22 51q0 30 21 48.5t53 18.5z" glyph-name="Edieresis" horiz-adv-x="685" unicode="Ë"/>
<glyph d="M100 0v811h144v-811h-144zM-28 985h140l117 -140h-114z" glyph-name="Igrave" horiz-adv-x="344" unicode="Ì"/>
<glyph d="M100 0v811h144v-811h-144zM210 845h-114l118 140h139z" glyph-name="Iacute" horiz-adv-x="344" unicode="Í"/>
<glyph d="M100 0v811h144v-811h-144zM380 845h-117l-88 84l-91 -84h-117l135 140h145z" glyph-name="Icircumflex" horiz-adv-x="344" unicode="Î"/>
<glyph d="M100 0v811h144v-811h-144zM37 983q32 0 53.5 -18.5t21.5 -48.5q0 -33 -23 -51q-21 -18 -52 -18q-29 0 -51.5 18t-22.5 51q0 30 21 48.5t53 18.5zM306 983q32 0 53 -18.5t21 -48.5q0 -34 -22 -51q-21 -18 -52 -18q-30 0 -52 18t-22 51q0 30 21 48.5t53 18.5z" glyph-name="Idieresis" horiz-adv-x="344" unicode="Ï"/>
<glyph d="M127 350h-120v134h120v327h214q101 0 187.5 -25.5t149.5 -75.5t98.5 -125.5t35.5 -174.5q0 -98 -34.5 -174.5t-96 -129t-146.5 -79.5t-187 -27h-221v350zM339 134q73 0 132.5 14.5t101.5 47.5t64.5 85.5t22.5 128.5q0 71 -23 121.5t-64.5 83t-99.5 47.5t-129 15h-72v-193 h189v-134h-189v-216h67z" glyph-name="Eth" horiz-adv-x="857" unicode="Ð"/>
<glyph d="M242 676v-676h-142v811h222l296 -676v676h141v-811h-221zM501 926q25 0 36 14t16 40h68q-5 -65 -36 -97.5t-76 -32.5q-25 0 -44.5 8.5t-36.5 18.5t-33 18.5t-34 8.5q-25 0 -35 -14t-15 -40h-69q5 60 36 95t77 35q25 0 44.5 -8.5t36 -18.5t32 -18.5t33.5 -8.5z" glyph-name="Ntilde" horiz-adv-x="859" unicode="Ñ"/>
<glyph d="M887 407q0 -89 -31 -165.5t-87 -133t-133 -88.5t-170 -32t-170 32t-133 88.5t-87 133t-31 165.5q0 88 31 165t87 133t133 88.5t170 32.5t170 -32.5t133 -88.5t87 -133t31 -165zM735 407q0 64 -20.5 116t-56.5 89t-85 57t-107 20q-57 0 -106 -20t-85 -57t-56.5 -89 t-20.5 -116t20.5 -116t56.5 -89t85 -57t106 -20q58 0 107 20t85 57t56.5 89t20.5 116zM264 985h140l117 -140h-114z" glyph-name="Ograve" horiz-adv-x="932" unicode="Ò"/>
<glyph d="M887 407q0 -89 -31 -165.5t-87 -133t-133 -88.5t-170 -32t-170 32t-133 88.5t-87 133t-31 165.5q0 88 31 165t87 133t133 88.5t170 32.5t170 -32.5t133 -88.5t87 -133t31 -165zM735 407q0 64 -20.5 116t-56.5 89t-85 57t-107 20q-57 0 -106 -20t-85 -57t-56.5 -89 t-20.5 -116t20.5 -116t56.5 -89t85 -57t106 -20q58 0 107 20t85 57t56.5 89t20.5 116zM519 845h-114l118 140h139z" glyph-name="Oacute" horiz-adv-x="932" unicode="Ó"/>
<glyph d="M887 407q0 -89 -31 -165.5t-87 -133t-133 -88.5t-170 -32t-170 32t-133 88.5t-87 133t-31 165.5q0 88 31 165t87 133t133 88.5t170 32.5t170 -32.5t133 -88.5t87 -133t31 -165zM735 407q0 64 -20.5 116t-56.5 89t-85 57t-107 20q-57 0 -106 -20t-85 -57t-56.5 -89 t-20.5 -116t20.5 -116t56.5 -89t85 -57t106 -20q58 0 107 20t85 57t56.5 89t20.5 116zM673 844h-117l-88 84l-91 -84h-117l135 140h145z" glyph-name="Ocircumflex" horiz-adv-x="932" unicode="Ô"/>
<glyph d="M887 407q0 -89 -31 -165.5t-87 -133t-133 -88.5t-170 -32t-170 32t-133 88.5t-87 133t-31 165.5q0 88 31 165t87 133t133 88.5t170 32.5t170 -32.5t133 -88.5t87 -133t31 -165zM735 407q0 64 -20.5 116t-56.5 89t-85 57t-107 20q-57 0 -106 -20t-85 -57t-56.5 -89 t-20.5 -116t20.5 -116t56.5 -89t85 -57t106 -20q58 0 107 20t85 57t56.5 89t20.5 116zM533 926q25 0 36 14t16 40h68q-5 -65 -36 -97.5t-76 -32.5q-25 0 -44.5 8.5t-36.5 18.5t-33 18.5t-34 8.5q-25 0 -35 -14t-15 -40h-69q5 60 36 95t77 35q25 0 44.5 -8.5t36 -18.5 t32 -18.5t33.5 -8.5z" glyph-name="Otilde" horiz-adv-x="932" unicode="Õ"/>
<glyph d="M887 407q0 -89 -31 -165.5t-87 -133t-133 -88.5t-170 -32t-170 32t-133 88.5t-87 133t-31 165.5q0 88 31 165t87 133t133 88.5t170 32.5t170 -32.5t133 -88.5t87 -133t31 -165zM735 407q0 64 -20.5 116t-56.5 89t-85 57t-107 20q-57 0 -106 -20t-85 -57t-56.5 -89 t-20.5 -116t20.5 -116t56.5 -89t85 -57t106 -20q58 0 107 20t85 57t56.5 89t20.5 116zM330 983q32 0 53.5 -18.5t21.5 -48.5q0 -33 -23 -51q-21 -18 -52 -18q-29 0 -51.5 18t-22.5 51q0 30 21 48.5t53 18.5zM599 983q32 0 53 -18.5t21 -48.5q0 -34 -22 -51q-21 -18 -52 -18 q-30 0 -52 18t-22 51q0 30 21 48.5t53 18.5z" glyph-name="Odieresis" horiz-adv-x="932" unicode="Ö"/>
<glyph d="M19 93l192 191l-192 192l84 83l190 -192l192 192l83 -83l-191 -192l191 -191l-83 -83l-192 191l-190 -191z" glyph-name="multiply" horiz-adv-x="587" unicode="×"/>
<glyph d="M146 127q-48 55 -74.5 126.5t-26.5 153.5q0 88 31 165t87 133t133 88.5t170 32.5q67 0 126 -17t108 -49l103 117l78 -64l-103 -118q52 -56 80.5 -129.5t28.5 -158.5q0 -89 -31 -165.5t-87 -133t-133 -88.5t-170 -32q-71 0 -132 18.5t-112 52.5l-98 -112l-79 65zM735 407 q0 53 -14 97.5t-40 79.5l-365 -416q64 -43 150 -43q58 0 107 20t85 57t56.5 89t20.5 116zM198 407q0 -50 12 -91.5t35 -75.5l361 412q-63 37 -140 37q-57 0 -106 -20t-85 -57t-56.5 -89t-20.5 -116z" glyph-name="Oslash" horiz-adv-x="932" unicode="Ø"/>
<glyph d="M438 -12q-95 0 -161 25.5t-107.5 70t-60.5 105t-19 129.5v493h144v-460q0 -56 10.5 -98.5t34.5 -71t63 -43t96 -14.5q56 0 95 14.5t63 43t35 71t11 98.5v460h144v-493q0 -69 -19 -129.5t-60.5 -105t-107.5 -70t-161 -25.5zM275 985h140l117 -140h-114z" glyph-name="Ugrave" horiz-adv-x="876" unicode="Ù"/>
<glyph d="M438 -12q-95 0 -161 25.5t-107.5 70t-60.5 105t-19 129.5v493h144v-460q0 -56 10.5 -98.5t34.5 -71t63 -43t96 -14.5q56 0 95 14.5t63 43t35 71t11 98.5v460h144v-493q0 -69 -19 -129.5t-60.5 -105t-107.5 -70t-161 -25.5zM469 845h-114l118 140h139z" glyph-name="Uacute" horiz-adv-x="876" unicode="Ú"/>
<glyph d="M438 -12q-95 0 -161 25.5t-107.5 70t-60.5 105t-19 129.5v493h144v-460q0 -56 10.5 -98.5t34.5 -71t63 -43t96 -14.5q56 0 95 14.5t63 43t35 71t11 98.5v460h144v-493q0 -69 -19 -129.5t-60.5 -105t-107.5 -70t-161 -25.5zM646 845h-117l-88 84l-91 -84h-117l135 140h145 z" glyph-name="Ucircumflex" horiz-adv-x="876" unicode="Û"/>
<glyph d="M438 -12q-95 0 -161 25.5t-107.5 70t-60.5 105t-19 129.5v493h144v-460q0 -56 10.5 -98.5t34.5 -71t63 -43t96 -14.5q56 0 95 14.5t63 43t35 71t11 98.5v460h144v-493q0 -69 -19 -129.5t-60.5 -105t-107.5 -70t-161 -25.5zM304 983q32 0 53.5 -18.5t21.5 -48.5 q0 -33 -23 -51q-21 -18 -52 -18q-29 0 -51.5 18t-22.5 51q0 30 21 48.5t53 18.5zM573 983q32 0 53 -18.5t21 -48.5q0 -34 -22 -51q-21 -18 -52 -18q-30 0 -52 18t-22 51q0 30 21 48.5t53 18.5z" glyph-name="Udieresis" horiz-adv-x="876" unicode="Ü"/>
<glyph d="M568 811h167l-287 -507v-304h-145v304l-288 507h167l193 -365zM407 845h-114l118 140h139z" glyph-name="Yacute" horiz-adv-x="750" unicode="Ý"/>
<glyph d="M244 152v-152h-144v811h144v-151h160q78 0 134 -21t92 -55.5t53.5 -79t17.5 -92.5q0 -51 -18 -98t-55 -83t-93 -57.5t-131 -21.5h-160zM244 526v-240h129q39 0 71.5 6t56 20t36 38t12.5 59q0 60 -43 88.5t-133 28.5h-129z" glyph-name="Thorn" horiz-adv-x="741" unicode="Þ"/>
<glyph d="M81 0v517q0 82 20.5 140.5t60.5 96t98 55t133 17.5q61 0 113.5 -13.5t90.5 -40.5t60 -67.5t22 -94.5q0 -26 -7 -50.5t-19 -45t-28.5 -36.5t-35.5 -25q27 -8 53 -25t46.5 -43.5t33.5 -62.5t13 -82q0 -66 -23.5 -114t-64 -78.5t-95.5 -45t-118 -14.5q-29 0 -69.5 3.5 t-75.5 9.5l27 136q22 -5 48 -8.5t52 -3.5q33 0 64 5.5t55 19t38.5 37.5t14.5 61q0 34 -15.5 57t-43 36t-64 18.5t-78.5 5.5h-26v129h21q75 0 112.5 22.5t37.5 71.5q0 48 -41.5 75t-104.5 27q-46 0 -77.5 -10.5t-51 -32.5t-28.5 -56t-9 -80v-511h-139z" glyph-name="germandbls" horiz-adv-x="780" unicode="ß"/>
<glyph d="M422 244q-21 5 -46 8q-26 4 -49 4q-27 0 -50.5 -3.5t-41.5 -12t-28.5 -22.5t-10.5 -34q0 -39 35.5 -54.5t87.5 -15.5q26 0 53 4t50 12v114zM317 -12q-53 0 -101.5 10t-85 32t-58.5 57.5t-22 87.5q0 47 19.5 83t54 60t83 36t105.5 12q23 0 50.5 -1.5t59.5 -6.5v8 q0 48 -36 65t-94 17q-22 0 -48 -4t-52.5 -11t-51.5 -16t-46 -19l18 143q34 17 87 29.5t112 12.5q54 0 100 -12t79.5 -38t52.5 -69t19 -104v-328q-54 -21 -118 -32.5t-127 -11.5zM148 811h140l117 -140h-114z" glyph-name="agrave" horiz-adv-x="632" unicode="à"/>
<glyph d="M422 244q-21 5 -46 8q-26 4 -49 4q-27 0 -50.5 -3.5t-41.5 -12t-28.5 -22.5t-10.5 -34q0 -39 35.5 -54.5t87.5 -15.5q26 0 53 4t50 12v114zM317 -12q-53 0 -101.5 10t-85 32t-58.5 57.5t-22 87.5q0 47 19.5 83t54 60t83 36t105.5 12q23 0 50.5 -1.5t59.5 -6.5v8 q0 48 -36 65t-94 17q-22 0 -48 -4t-52.5 -11t-51.5 -16t-46 -19l18 143q34 17 87 29.5t112 12.5q54 0 100 -12t79.5 -38t52.5 -69t19 -104v-328q-54 -21 -118 -32.5t-127 -11.5zM362 671h-114l118 140h139z" glyph-name="aacute" horiz-adv-x="632" unicode="á"/>
<glyph d="M422 244q-21 5 -46 8q-26 4 -49 4q-27 0 -50.5 -3.5t-41.5 -12t-28.5 -22.5t-10.5 -34q0 -39 35.5 -54.5t87.5 -15.5q26 0 53 4t50 12v114zM317 -12q-53 0 -101.5 10t-85 32t-58.5 57.5t-22 87.5q0 47 19.5 83t54 60t83 36t105.5 12q23 0 50.5 -1.5t59.5 -6.5v8 q0 48 -36 65t-94 17q-22 0 -48 -4t-52.5 -11t-51.5 -16t-46 -19l18 143q34 17 87 29.5t112 12.5q54 0 100 -12t79.5 -38t52.5 -69t19 -104v-328q-54 -21 -118 -32.5t-127 -11.5zM532 671h-117l-88 84l-91 -84h-117l135 140h145z" glyph-name="acircumflex" horiz-adv-x="632" unicode="â"/>
<glyph d="M422 244q-21 5 -46 8q-26 4 -49 4q-27 0 -50.5 -3.5t-41.5 -12t-28.5 -22.5t-10.5 -34q0 -39 35.5 -54.5t87.5 -15.5q26 0 53 4t50 12v114zM317 -12q-53 0 -101.5 10t-85 32t-58.5 57.5t-22 87.5q0 47 19.5 83t54 60t83 36t105.5 12q23 0 50.5 -1.5t59.5 -6.5v8 q0 48 -36 65t-94 17q-22 0 -48 -4t-52.5 -11t-51.5 -16t-46 -19l18 143q34 17 87 29.5t112 12.5q54 0 100 -12t79.5 -38t52.5 -69t19 -104v-328q-54 -21 -118 -32.5t-127 -11.5zM401 750q25 0 36 14t16 40h68q-5 -65 -36 -97.5t-76 -32.5q-25 0 -44.5 8.5t-36.5 18.5 t-33 18.5t-34 8.5q-25 0 -35 -14t-15 -40h-69q5 60 36 95t77 35q25 0 44.5 -8.5t36 -18.5t32 -18.5t33.5 -8.5z" glyph-name="atilde" horiz-adv-x="632" unicode="ã"/>
<glyph d="M422 244q-21 5 -46 8q-26 4 -49 4q-27 0 -50.5 -3.5t-41.5 -12t-28.5 -22.5t-10.5 -34q0 -39 35.5 -54.5t87.5 -15.5q26 0 53 4t50 12v114zM317 -12q-53 0 -101.5 10t-85 32t-58.5 57.5t-22 87.5q0 47 19.5 83t54 60t83 36t105.5 12q23 0 50.5 -1.5t59.5 -6.5v8 q0 48 -36 65t-94 17q-22 0 -48 -4t-52.5 -11t-51.5 -16t-46 -19l18 143q34 17 87 29.5t112 12.5q54 0 100 -12t79.5 -38t52.5 -69t19 -104v-328q-54 -21 -118 -32.5t-127 -11.5zM201 800q32 0 53.5 -18.5t21.5 -48.5q0 -33 -23 -51q-21 -18 -52 -18q-29 0 -51.5 18t-22.5 51 q0 30 21 48.5t53 18.5zM470 800q32 0 53 -18.5t21 -48.5q0 -34 -22 -51q-21 -18 -52 -18q-30 0 -52 18t-22 51q0 30 21 48.5t53 18.5z" glyph-name="adieresis" horiz-adv-x="632" unicode="ä"/>
<glyph d="M422 244q-21 5 -46 8q-26 4 -49 4q-27 0 -50.5 -3.5t-41.5 -12t-28.5 -22.5t-10.5 -34q0 -39 35.5 -54.5t87.5 -15.5q26 0 53 4t50 12v114zM317 -12q-53 0 -101.5 10t-85 32t-58.5 57.5t-22 87.5q0 47 19.5 83t54 60t83 36t105.5 12q23 0 50.5 -1.5t59.5 -6.5v8 q0 48 -36 65t-94 17q-22 0 -48 -4t-52.5 -11t-51.5 -16t-46 -19l18 143q34 17 87 29.5t112 12.5q54 0 100 -12t79.5 -38t52.5 -69t19 -104v-328q-54 -21 -118 -32.5t-127 -11.5zM332 848q44 0 74.5 -28t30.5 -72q0 -45 -30 -73t-75 -28t-76 28t-31 73q0 44 31 72t76 28z M332 804q-23 0 -40.5 -15.5t-17.5 -40.5q0 -26 17.5 -41t40.5 -15t39.5 15t16.5 41q0 25 -16.5 40.5t-39.5 15.5z" glyph-name="aring" horiz-adv-x="632" unicode="å"/>
<glyph d="M730 125q23 0 47 4t46.5 10.5t41.5 15.5t30 20l62 -125q-45 -25 -104 -43.5t-142 -18.5q-52 0 -95 13.5t-78 38.5q-48 -23 -104 -37.5t-117 -14.5q-53 0 -101.5 10t-85 32t-58.5 57.5t-22 87.5q0 47 19.5 83t54 60t83 36t105.5 12q23 0 50.5 -1.5t59.5 -6.5v8 q0 48 -36 65t-94 17q-22 0 -48 -4t-52.5 -11t-51.5 -16t-46 -19l18 143q34 17 87 29.5t112 12.5q67 0 116 -18t78 -60q36 37 86 57.5t110 20.5q65 0 119.5 -23t93.5 -67.5t60 -108.5t18 -145h-446q14 -58 58.5 -86t110.5 -28h15zM422 244q-21 5 -46 8q-26 4 -49 4 q-27 0 -50.5 -3.5t-41.5 -12t-28.5 -22.5t-10.5 -34q0 -39 35.5 -54.5t87.5 -15.5q26 0 53 4t50 12v114zM699 459q-57 0 -96 -29.5t-52 -74.5h294q-11 52 -50 78t-96 26z" glyph-name="ae" horiz-adv-x="1020" unicode="æ"/>
<glyph d="M187 -153q12 -5 36 -10q25 -6 45 -6q23 0 43.5 7t20.5 28q0 22 -21 29t-47 7q-19 0 -36.5 -2.5t-28.5 -4.5l60 101q-50 12 -91.5 38t-71.5 63.5t-46.5 85.5t-16.5 102q0 64 22.5 118.5t63 94.5t96 62.5t120.5 22.5q58 0 105 -12t90 -34l-56 -126q-28 16 -61 25.5t-72 9.5 q-36 0 -66 -11.5t-51 -33t-32.5 -51t-11.5 -65.5t11.5 -65.5t32.5 -50.5t51 -32.5t66 -11.5q39 0 72 9t61 26l56 -127q-43 -22 -90 -33.5t-105 -11.5q-7 0 -13 0.5t-12 0.5l-27 -45q16 1 35.5 -1t36.5 -10.5t28 -23.5t11 -39q0 -25 -10 -42.5t-27 -29t-39 -16.5t-46 -5 q-23 0 -41 2.5t-40 10.5z" glyph-name="ccedilla" horiz-adv-x="558" unicode="ç"/>
<glyph d="M361 125q22 0 46.5 4t47 10.5t41.5 15.5t30 20l62 -125q-45 -25 -104 -43.5t-142 -18.5q-67 0 -123.5 22.5t-98 62.5t-64.5 94.5t-23 117.5q0 65 23.5 120t64 94.5t95 61.5t116.5 22q65 0 119.5 -23t93.5 -67.5t60 -108.5t18 -145h-446q14 -58 58.5 -86t110.5 -28h15z M330 459q-57 0 -96 -29.5t-52 -74.5h294q-11 52 -50 78t-96 26zM157 811h140l117 -140h-114z" glyph-name="egrave" horiz-adv-x="651" unicode="è"/>
<glyph d="M361 125q22 0 46.5 4t47 10.5t41.5 15.5t30 20l62 -125q-45 -25 -104 -43.5t-142 -18.5q-67 0 -123.5 22.5t-98 62.5t-64.5 94.5t-23 117.5q0 65 23.5 120t64 94.5t95 61.5t116.5 22q65 0 119.5 -23t93.5 -67.5t60 -108.5t18 -145h-446q14 -58 58.5 -86t110.5 -28h15z M330 459q-57 0 -96 -29.5t-52 -74.5h294q-11 52 -50 78t-96 26zM374 671h-114l118 140h139z" glyph-name="eacute" horiz-adv-x="651" unicode="é"/>
<glyph d="M361 125q22 0 46.5 4t47 10.5t41.5 15.5t30 20l62 -125q-45 -25 -104 -43.5t-142 -18.5q-67 0 -123.5 22.5t-98 62.5t-64.5 94.5t-23 117.5q0 65 23.5 120t64 94.5t95 61.5t116.5 22q65 0 119.5 -23t93.5 -67.5t60 -108.5t18 -145h-446q14 -58 58.5 -86t110.5 -28h15z M539 671h-117l-88 84l-91 -84h-117l135 140h145zM330 459q-57 0 -96 -29.5t-52 -74.5h294q-11 52 -50 78t-96 26z" glyph-name="ecircumflex" horiz-adv-x="651" unicode="ê"/>
<glyph d="M361 125q22 0 46.5 4t47 10.5t41.5 15.5t30 20l62 -125q-45 -25 -104 -43.5t-142 -18.5q-67 0 -123.5 22.5t-98 62.5t-64.5 94.5t-23 117.5q0 65 23.5 120t64 94.5t95 61.5t116.5 22q65 0 119.5 -23t93.5 -67.5t60 -108.5t18 -145h-446q14 -58 58.5 -86t110.5 -28h15z M330 459q-57 0 -96 -29.5t-52 -74.5h294q-11 52 -50 78t-96 26zM208 800q32 0 53.5 -18.5t21.5 -48.5q0 -33 -23 -51q-21 -18 -52 -18q-29 0 -51.5 18t-22.5 51q0 30 21 48.5t53 18.5zM477 800q32 0 53 -18.5t21 -48.5q0 -34 -22 -51q-21 -18 -52 -18q-30 0 -52 18t-22 51 q0 30 21 48.5t53 18.5z" glyph-name="edieresis" horiz-adv-x="651" unicode="ë"/>
<glyph d="M81 0v563h140v-563h-140zM-19 811h140l117 -140h-114z" glyph-name="igrave" horiz-adv-x="301" unicode="ì"/>
<glyph d="M81 0v563h140v-563h-140zM173 671h-114l118 140h139z" glyph-name="iacute" horiz-adv-x="301" unicode="í"/>
<glyph d="M81 0v563h140v-563h-140zM357 671h-117l-88 84l-91 -84h-117l135 140h145z" glyph-name="icircumflex" horiz-adv-x="301" unicode="î"/>
<glyph d="M81 0v563h140v-563h-140zM16 800q32 0 53.5 -18.5t21.5 -48.5q0 -33 -23 -51q-21 -18 -52 -18q-29 0 -51.5 18t-22.5 51q0 30 21 48.5t53 18.5zM285 800q32 0 53 -18.5t21 -48.5q0 -34 -22 -51q-21 -18 -52 -18q-30 0 -52 18t-22 51q0 30 21 48.5t53 18.5z" glyph-name="idieresis" horiz-adv-x="301" unicode="ï"/>
<glyph d="M183 667l89 46l-77 98h180l24 -33l102 53l33 -52l-98 -50l125 -166q51 -68 79.5 -133.5t28.5 -144.5q0 -65 -25.5 -119.5t-68.5 -94t-99.5 -61.5t-118.5 -22q-63 0 -119.5 22.5t-99.5 62t-68 94t-25 118.5q0 59 21 113t58.5 95.5t89 66.5t113.5 25q28 0 51 -4l-67 83 l-95 -49zM357 125q38 0 68.5 13t52.5 35.5t33.5 52.5t11.5 64t-12 63.5t-33.5 52t-52.5 35.5t-68 13q-38 0 -68.5 -13t-52.5 -35.5t-34 -52t-12 -63.5t12 -64t34 -52.5t52.5 -35.5t68.5 -13z" glyph-name="eth" horiz-adv-x="714" unicode="ð"/>
<glyph d="M81 554q33 6 68 11.5t68.5 9t63.5 6t53 2.5q54 0 101.5 -10t82.5 -36t55.5 -71t20.5 -114v-352h-140v312q0 77 -32 105.5t-94 28.5q-23 0 -50 -3t-57 -8v-435h-140v554zM400 750q25 0 36 14t16 40h68q-5 -65 -36 -97.5t-76 -32.5q-25 0 -44.5 8.5t-36.5 18.5t-33 18.5 t-34 8.5q-25 0 -35 -14t-15 -40h-69q5 60 36 95t77 35q25 0 44.5 -8.5t36 -18.5t32 -18.5t33.5 -8.5z" glyph-name="ntilde" horiz-adv-x="664" unicode="ñ"/>
<glyph d="M338 -12q-65 0 -120.5 23t-96.5 62.5t-64.5 94t-23.5 117.5t23.5 117t64.5 94.5t96.5 63.5t120.5 23t120.5 -23t96.5 -63.5t64.5 -94.5t23.5 -117t-23.5 -117.5t-64.5 -94t-96.5 -62.5t-120.5 -23zM338 125q37 0 66 12.5t49.5 34t31.5 51t11 62.5t-11 62.5t-31.5 51 t-49.5 34.5t-66 13t-66 -13t-49.5 -34.5t-31.5 -51t-11 -62.5t11 -62.5t31.5 -51t49.5 -34t66 -12.5zM156 811h140l117 -140h-114z" glyph-name="ograve" unicode="ò"/>
<glyph d="M338 -12q-65 0 -120.5 23t-96.5 62.5t-64.5 94t-23.5 117.5t23.5 117t64.5 94.5t96.5 63.5t120.5 23t120.5 -23t96.5 -63.5t64.5 -94.5t23.5 -117t-23.5 -117.5t-64.5 -94t-96.5 -62.5t-120.5 -23zM338 125q37 0 66 12.5t49.5 34t31.5 51t11 62.5t-11 62.5t-31.5 51 t-49.5 34.5t-66 13t-66 -13t-49.5 -34.5t-31.5 -51t-11 -62.5t11 -62.5t31.5 -51t49.5 -34t66 -12.5zM402 671h-114l118 140h139z" glyph-name="oacute" unicode="ó"/>
<glyph d="M338 -12q-65 0 -120.5 23t-96.5 62.5t-64.5 94t-23.5 117.5t23.5 117t64.5 94.5t96.5 63.5t120.5 23t120.5 -23t96.5 -63.5t64.5 -94.5t23.5 -117t-23.5 -117.5t-64.5 -94t-96.5 -62.5t-120.5 -23zM338 125q37 0 66 12.5t49.5 34t31.5 51t11 62.5t-11 62.5t-31.5 51 t-49.5 34.5t-66 13t-66 -13t-49.5 -34.5t-31.5 -51t-11 -62.5t11 -62.5t31.5 -51t49.5 -34t66 -12.5zM547 671h-117l-88 84l-91 -84h-117l135 140h145z" glyph-name="ocircumflex" unicode="ô"/>
<glyph d="M338 -12q-65 0 -120.5 23t-96.5 62.5t-64.5 94t-23.5 117.5t23.5 117t64.5 94.5t96.5 63.5t120.5 23t120.5 -23t96.5 -63.5t64.5 -94.5t23.5 -117t-23.5 -117.5t-64.5 -94t-96.5 -62.5t-120.5 -23zM338 125q37 0 66 12.5t49.5 34t31.5 51t11 62.5t-11 62.5t-31.5 51 t-49.5 34.5t-66 13t-66 -13t-49.5 -34.5t-31.5 -51t-11 -62.5t11 -62.5t31.5 -51t49.5 -34t66 -12.5zM407 750q25 0 36 14t16 40h68q-5 -65 -36 -97.5t-76 -32.5q-25 0 -44.5 8.5t-36.5 18.5t-33 18.5t-34 8.5q-25 0 -35 -14t-15 -40h-69q5 60 36 95t77 35q25 0 44.5 -8.5 t36 -18.5t32 -18.5t33.5 -8.5z" glyph-name="otilde" unicode="õ"/>
<glyph d="M338 -12q-65 0 -120.5 23t-96.5 62.5t-64.5 94t-23.5 117.5t23.5 117t64.5 94.5t96.5 63.5t120.5 23t120.5 -23t96.5 -63.5t64.5 -94.5t23.5 -117t-23.5 -117.5t-64.5 -94t-96.5 -62.5t-120.5 -23zM338 125q37 0 66 12.5t49.5 34t31.5 51t11 62.5t-11 62.5t-31.5 51 t-49.5 34.5t-66 13t-66 -13t-49.5 -34.5t-31.5 -51t-11 -62.5t11 -62.5t31.5 -51t49.5 -34t66 -12.5zM203 800q32 0 53.5 -18.5t21.5 -48.5q0 -33 -23 -51q-21 -18 -52 -18q-29 0 -51.5 18t-22.5 51q0 30 21 48.5t53 18.5zM472 800q32 0 53 -18.5t21 -48.5q0 -34 -22 -51 q-21 -18 -52 -18q-30 0 -52 18t-22 51q0 30 21 48.5t53 18.5z" glyph-name="odieresis" unicode="ö"/>
<glyph d="M46 350h517v-130h-517v130zM302 -45q-17 0 -34 5q-16 6 -29 16.5t-20.5 25.5t-7.5 33q0 19 7.5 34t20.5 25.5t29.5 16.5t33.5 6q18 0 34.5 -6t29 -16.5t20.5 -25.5t8 -34q0 -18 -8 -33t-20.5 -25.5t-29 -16t-34.5 -5.5zM302 446q-17 0 -34 6q-16 5 -29 15.5t-20.5 25.5 t-7.5 33t7.5 33.5t20.5 26t29.5 16.5t33.5 6q18 0 34.5 -6t29 -16.5t20.5 -26t8 -33.5t-8 -33t-20.5 -25.5t-29 -16t-34.5 -5.5z" glyph-name="divide" horiz-adv-x="609" unicode="÷"/>
<glyph d="M113 81q-38 39 -59 91.5t-21 112.5q0 63 23.5 117t64.5 94.5t96.5 63.5t120.5 23q48 0 90.5 -12.5t78.5 -35.5l74 85l63 -55l-74 -85q35 -39 54 -88.5t19 -106.5q0 -63 -23.5 -117.5t-64.5 -94t-96.5 -62.5t-120.5 -23q-45 0 -84.5 10.5t-74.5 30.5l-73 -84l-63 55z M180 285q0 -56 27 -95l207 238q-16 8 -35 13t-41 5q-37 0 -66 -13t-49.5 -34.5t-31.5 -51t-11 -62.5zM338 125q37 0 66 12.5t49.5 34t31.5 51t11 62.5q0 47 -21 85l-202 -233q28 -12 65 -12z" glyph-name="oslash" unicode="ø"/>
<glyph d="M421 563h140v-534q-30 -10 -58 -17.5t-56.5 -13t-59.5 -8t-67 -2.5q-54 0 -100.5 11.5t-81 38.5t-54 71t-19.5 110v344h140v-304q0 -77 26 -105.5t85 -28.5q23 0 48.5 3t56.5 11v424zM155 811h140l117 -140h-114z" glyph-name="ugrave" horiz-adv-x="642" unicode="ù"/>
<glyph d="M421 563h140v-534q-30 -10 -58 -17.5t-56.5 -13t-59.5 -8t-67 -2.5q-54 0 -100.5 11.5t-81 38.5t-54 71t-19.5 110v344h140v-304q0 -77 26 -105.5t85 -28.5q23 0 48.5 3t56.5 11v424zM350 671h-114l118 140h139z" glyph-name="uacute" horiz-adv-x="642" unicode="ú"/>
<glyph d="M421 563h140v-534q-30 -10 -58 -17.5t-56.5 -13t-59.5 -8t-67 -2.5q-54 0 -100.5 11.5t-81 38.5t-54 71t-19.5 110v344h140v-304q0 -77 26 -105.5t85 -28.5q23 0 48.5 3t56.5 11v424zM523 671h-117l-88 84l-91 -84h-117l135 140h145z" glyph-name="ucircumflex" horiz-adv-x="642" unicode="û"/>
<glyph d="M421 563h140v-534q-30 -10 -58 -17.5t-56.5 -13t-59.5 -8t-67 -2.5q-54 0 -100.5 11.5t-81 38.5t-54 71t-19.5 110v344h140v-304q0 -77 26 -105.5t85 -28.5q23 0 48.5 3t56.5 11v424zM178 800q32 0 53.5 -18.5t21.5 -48.5q0 -33 -23 -51q-21 -18 -52 -18q-29 0 -51.5 18 t-22.5 51q0 30 21 48.5t53 18.5zM447 800q32 0 53 -18.5t21 -48.5q0 -34 -22 -51q-21 -18 -52 -18q-30 0 -52 18t-22 51q0 30 21 48.5t53 18.5z" glyph-name="udieresis" horiz-adv-x="642" unicode="ü"/>
<glyph d="M77 -54q22 -9 47 -17q25 -7 52 -13t52.5 -9t46.5 -3q32 0 59 5.5t46.5 17t30.5 29t11 42.5v12q-57 -12 -112 -12q-54 0 -99 10t-77.5 36t-50.5 71t-18 114v335h141v-295q0 -39 6.5 -64.5t20 -41t34.5 -22t50 -6.5q23 0 48.5 3t56.5 12v414h140v-521q0 -75 -14.5 -126 t-48.5 -82.5t-90 -45.5t-140 -14q-17 0 -38 2t-43 5.5t-43 8t-38 9.5zM338 671h-114l118 140h139z" glyph-name="yacute" horiz-adv-x="643" unicode="ý"/>
<glyph d="M221 -220h-140v1031h140v-234l43 4q23 2 43 2q78 0 139 -23t103.5 -62.5t64.5 -94t22 -117.5t-22.5 -117.5t-64 -94.5t-100.5 -63t-131 -23q-19 0 -43.5 1.5t-53.5 6.5v-216zM221 136q26 -6 47 -8.5t41 -2.5q83 0 132 40t49 121q0 82 -49 121t-132 39q-21 0 -43 -3.5 t-45 -8.5v-298z" glyph-name="thorn" horiz-adv-x="669" unicode="þ"/>
</font>
</defs>
</svg>
